<svg width="24" height="24" viewBox="0 0 24 24" fill="none" xmlns="http://www.w3.org/2000/svg">
<path d="M8.625 22V13.9614C8.625 13.3271 9.12868 12.813 9.75 12.813H14.25C14.8713 12.813 15.375 13.3271 15.375 13.9614V22M3 19.7032V11.0226C3 9.64488 3.60582 8.33989 4.65043 7.46745L10.5752 2.51916C11.404 1.82695 12.596 1.82694 13.4248 2.51916L19.3496 7.46745C20.3942 8.33989 21 9.64488 21 11.0226V19.7032C21 20.9717 19.9926 22 18.75 22H16.5H7.5H5.25C4.00736 22 3 20.9717 3 19.7032Z" stroke="#0E1B2C" stroke-width="2" stroke-linecap="round"/>
</svg>
