<svg width="222" height="63" viewBox="0 0 222 63" fill="none" xmlns="http://www.w3.org/2000/svg">
<g id="Group 1171275867">
<path id="Vector" d="M120.257 29.0106L114.652 31.1031V31.235C114.652 43.3351 104.844 53.1471 92.7395 53.1471C85.9217 53.1471 79.8312 50.0296 75.812 45.1385L70.1384 47.0268C68.2883 47.6436 67.646 49.9317 68.905 51.4203C74.8891 58.4805 83.944 62.8485 94.0112 62.4487C109.829 61.8192 122.805 49.23 123.898 33.4381C123.94 32.8427 123.966 32.2472 123.97 31.656C123.996 29.7081 122.078 28.3344 120.253 29.0149L120.257 29.0106Z" fill="#FFD23E"/>
<path id="Vector_2" d="M0 62.0957V0H18.6159L43.4627 49.6808V0H55.8776V62.0957H37.2446L12.4149 12.4319V62.0957H0Z" fill="white"/>
<path id="Vector_3" d="M123.974 0H136.389L155.022 37.2617L173.638 0H186.07L155.022 62.0957L123.974 0Z" fill="white"/>
<path id="Vector_4" d="M190.927 0L159.879 62.0957H172.299L190.927 24.8468L199.952 42.14H187.537L181.324 54.5549H205.52L203.393 49.7233L208.909 62.0957H221.975L190.927 0Z" fill="white"/>
<path id="Vector_5" d="M148.779 11.1687C148.511 10.4074 142.556 11.0922 133.085 13.172C129.678 13.9205 125.812 14.8477 121.593 15.9578C120.308 15.3921 119.16 14.5117 118.377 13.3889C112.508 4.97619 102.607 -0.416779 91.472 0.0255463C75.6546 0.655009 62.6783 13.2443 61.5853 29.0361C61.4662 30.7374 61.4875 32.4131 61.6363 34.0506C61.7384 35.1691 61.4279 36.3175 60.8793 37.3808C57.3534 38.9587 54.121 40.4728 51.2332 41.8848C41.5233 46.6271 35.7305 50.2082 36.0112 51.0078C36.2749 51.7606 41.9996 50.5102 51.1821 47.852C61.7129 44.7982 76.7945 39.8901 93.4284 34.0123C110.101 28.1217 124.953 22.4523 135.062 18.2119C143.837 14.5287 149.042 11.9215 148.779 11.1687ZM71.4313 36.5386C71.0953 35.1309 70.9039 33.6678 70.8528 32.1664C70.8528 32.1111 70.8528 32.0516 70.8486 31.9963C70.8443 31.8134 70.8316 31.6348 70.8316 31.4477C70.8316 31.4094 70.8316 31.3668 70.8316 31.3286C70.8316 30.6438 70.8528 29.9505 70.9166 29.2488C71.9034 18.2587 81.0901 9.63336 92.1185 9.32714C98.6598 9.14425 104.567 11.8365 108.693 16.2215C108.846 16.3831 108.999 16.5447 109.148 16.7106C109.182 16.7531 109.22 16.7914 109.259 16.8297C110.658 18.4033 111.84 20.1811 112.746 22.112L71.4313 36.5344V36.5386Z" fill="#FFD23E"/>
</g>
</svg>
