<svg width="36" height="28" viewBox="0 0 36 28" fill="none" xmlns="http://www.w3.org/2000/svg">
<path d="M14.0632 2.26739C14.4523 1.89739 14.9321 1.62399 15.46 1.47151C15.9878 1.31904 16.5473 1.29219 17.0887 1.39338C17.6302 1.49456 18.1368 1.72063 18.5635 2.0515C18.9903 2.38236 19.3239 2.80777 19.5348 3.2899C19.7457 3.77203 19.8273 4.29594 19.7724 4.81507C19.7175 5.3342 19.5277 5.83246 19.22 6.26556C18.9122 6.69866 18.4961 7.05317 18.0085 7.29759C17.5208 7.542 16.9769 7.66875 16.425 7.66656H1.34998M19.0882 25.7324C19.4773 26.1024 19.9571 26.3758 20.485 26.5283C21.0128 26.6807 21.5723 26.7076 22.1137 26.6064C22.6552 26.5052 23.1618 26.2791 23.5885 25.9483C24.0153 25.6174 24.3489 25.192 24.5598 24.7099C24.7707 24.2278 24.8523 23.7038 24.7974 23.1847C24.7425 22.6656 24.5527 22.1673 24.245 21.7342C23.9372 21.3011 23.5211 20.9466 23.0335 20.7022C22.5458 20.4578 22.0019 20.331 21.45 20.3332H1.34998M27.6977 7.23906C28.1849 6.77971 28.7843 6.44092 29.443 6.25266C30.1016 6.0644 30.7992 6.03246 31.474 6.15968C32.1488 6.28689 32.78 6.56934 33.3119 6.98203C33.8437 7.39473 34.2598 7.92495 34.5233 8.52582C34.7868 9.12668 34.8896 9.77966 34.8226 10.427C34.7556 11.0744 34.5208 11.6961 34.1391 12.2373C33.7574 12.7785 33.2405 13.2225 32.6342 13.5299C32.0278 13.8373 31.3506 13.9987 30.6625 13.9999H1.34998" stroke="#FFD23F" stroke-width="2" stroke-linecap="round" stroke-linejoin="round"/>
</svg>
