<svg width="48" height="48" viewBox="0 0 48 48" fill="none" xmlns="http://www.w3.org/2000/svg">
<g id="PayPal">
<g id="Shape">
<path id="Shape_2" d="M20.213 36.1232L20.6314 33.4656L19.6994 33.444H15.249L18.3418 13.8336C18.3514 13.7744 18.3826 13.7192 18.4282 13.68C18.4738 13.6408 18.5322 13.6192 18.593 13.6192H26.097C28.5882 13.6192 30.3074 14.1376 31.205 15.1608C31.6258 15.6408 31.8938 16.1424 32.0234 16.6944C32.1594 17.2736 32.1618 17.9656 32.029 18.8096L32.0194 18.8712V19.412L32.4402 19.6504C32.7946 19.8384 33.0762 20.0536 33.2922 20.3C33.6522 20.7104 33.885 21.232 33.9834 21.8504C34.085 22.4864 34.0514 23.2432 33.885 24.1C33.693 25.0856 33.3826 25.944 32.9634 26.6464C32.5778 27.2936 32.0866 27.8304 31.5034 28.2464C30.9466 28.6416 30.285 28.9416 29.537 29.1336C28.8122 29.3224 27.9858 29.4176 27.0794 29.4176H26.4954C26.0778 29.4176 25.6722 29.568 25.3538 29.8376C25.0346 30.1128 24.8234 30.4888 24.7586 30.9L24.7146 31.1392L23.9754 35.8232L23.9418 35.9952C23.933 36.0496 23.9178 36.0768 23.8954 36.0952C23.8754 36.112 23.8466 36.1232 23.8186 36.1232H20.213Z" fill="#253B80"/>
<path id="Shape_3" d="M32.8383 18.9336C32.8159 19.0768 32.7903 19.2232 32.7615 19.3736C31.7719 24.4544 28.3863 26.2096 24.0623 26.2096H21.8607C21.3319 26.2096 20.8863 26.5936 20.8039 27.1152L19.6767 34.264L19.3575 36.2904C19.3039 36.6328 19.5679 36.9416 19.9135 36.9416H23.8183C24.2807 36.9416 24.6735 36.6056 24.7463 36.1496L24.7847 35.9512L25.5199 31.2856L25.5671 31.0296C25.6391 30.572 26.0327 30.236 26.4951 30.236H27.0791C30.8623 30.236 33.8239 28.7 34.6895 24.2552C35.0511 22.3984 34.8639 20.848 33.9071 19.7576C33.6175 19.4288 33.2583 19.156 32.8383 18.9336Z" fill="#179BD7"/>
<path id="Shape_4" d="M31.8039 18.5208C31.6527 18.4768 31.4967 18.4368 31.3367 18.4008C31.1759 18.3656 31.0111 18.3344 30.8415 18.3072C30.2479 18.2112 29.5975 18.1656 28.9007 18.1656H23.0191C22.8743 18.1656 22.7367 18.1984 22.6135 18.2576C22.3423 18.388 22.1407 18.6448 22.0919 18.9592L20.8407 26.884L20.8047 27.1152C20.8871 26.5936 21.3327 26.2096 21.8615 26.2096H24.0631C28.3871 26.2096 31.7727 24.4536 32.7623 19.3736C32.7919 19.2232 32.8167 19.0768 32.8391 18.9336C32.5887 18.8008 32.3175 18.6872 32.0255 18.5904C31.9535 18.5664 31.8791 18.5432 31.8039 18.5208Z" fill="#222D65"/>
<path id="Shape_5" d="M22.6132 18.2584C22.7372 18.1992 22.874 18.1664 23.0188 18.1664H28.9004C29.5972 18.1664 30.2476 18.212 30.8412 18.308C31.0108 18.3352 31.1756 18.3664 31.3364 18.4016C31.4964 18.4376 31.6524 18.4776 31.8036 18.5216C31.8788 18.544 31.9532 18.5672 32.026 18.5904C32.318 18.6872 32.5892 18.8016 32.8396 18.9336C33.134 17.056 32.8372 15.7776 31.822 14.62C30.7028 13.3456 28.6828 12.8 26.098 12.8H18.594C18.066 12.8 17.6156 13.184 17.534 13.7064L14.4084 33.5184C14.3468 33.9104 14.6492 34.264 15.0444 34.264H19.6772L20.8404 26.884L22.0916 18.9592C22.1404 18.6448 22.342 18.388 22.6132 18.2584Z" fill="#253B80"/>
</g>
</g>
</svg>
