<svg width="24" height="25" viewBox="0 0 24 25" fill="none" xmlns="http://www.w3.org/2000/svg">
<path d="M18.19 16.75H7.53999C6.54999 16.75 5.59999 16.33 4.92999 15.6C4.25999 14.87 3.92 13.89 4 12.9L4.83 2.94C4.86 2.63 4.74999 2.33001 4.53999 2.10001C4.32999 1.87001 4.04 1.75 3.73 1.75H2C1.59 1.75 1.25 1.41 1.25 1C1.25 0.59 1.59 0.25 2 0.25H3.74001C4.47001 0.25 5.15999 0.559996 5.64999 1.09C5.91999 1.39 6.12 1.74 6.23 2.13H18.72C19.73 2.13 20.66 2.53 21.34 3.25C22.01 3.98 22.35 4.93 22.27 5.94L21.73 13.44C21.62 15.27 20.02 16.75 18.19 16.75ZM6.28 3.62L5.5 13.02C5.45 13.6 5.64 14.15 6.03 14.58C6.42 15.01 6.95999 15.24 7.53999 15.24H18.19C19.23 15.24 20.17 14.36 20.25 13.32L20.79 5.82001C20.83 5.23001 20.64 4.67001 20.25 4.26001C19.86 3.84001 19.32 3.60999 18.73 3.60999H6.28V3.62Z" fill="#0E1B2C"/>
<path d="M16.25 21.75C15.15 21.75 14.25 20.85 14.25 19.75C14.25 18.65 15.15 17.75 16.25 17.75C17.35 17.75 18.25 18.65 18.25 19.75C18.25 20.85 17.35 21.75 16.25 21.75ZM16.25 19.25C15.97 19.25 15.75 19.47 15.75 19.75C15.75 20.03 15.97 20.25 16.25 20.25C16.53 20.25 16.75 20.03 16.75 19.75C16.75 19.47 16.53 19.25 16.25 19.25Z" fill="#0E1B2C"/>
<path d="M8.25 21.75C7.15 21.75 6.25 20.85 6.25 19.75C6.25 18.65 7.15 17.75 8.25 17.75C9.35 17.75 10.25 18.65 10.25 19.75C10.25 20.85 9.35 21.75 8.25 21.75ZM8.25 19.25C7.97 19.25 7.75 19.47 7.75 19.75C7.75 20.03 7.97 20.25 8.25 20.25C8.53 20.25 8.75 20.03 8.75 19.75C8.75 19.47 8.53 19.25 8.25 19.25Z" fill="#0E1B2C"/>
<path d="M21 7.75H9C8.59 7.75 8.25 7.41 8.25 7C8.25 6.59 8.59 6.25 9 6.25H21C21.41 6.25 21.75 6.59 21.75 7C21.75 7.41 21.41 7.75 21 7.75Z" fill="#0E1B2C"/>
</svg>
