<svg width="254" height="254" viewBox="0 0 254 254" fill="none" xmlns="http://www.w3.org/2000/svg">
<g id="Visa">
<g id="path10273">
<path id="path-2" fill-rule="evenodd" clip-rule="evenodd" d="M129.678 122.101C129.591 128.997 135.775 132.846 140.433 135.135C145.219 137.483 146.827 138.988 146.809 141.088C146.772 144.301 142.991 145.719 139.451 145.775C133.443 145.869 129.882 144.189 127.065 142.86L126.832 142.75L124.608 153.242C127.472 154.573 132.774 155.733 138.273 155.784C151.18 155.784 159.624 149.361 159.67 139.403C159.7 131.842 153.488 128.554 148.517 125.923C145.178 124.156 142.4 122.685 142.447 120.415C142.488 118.703 144.11 116.875 147.663 116.41C149.421 116.175 154.276 115.996 159.78 118.551L161.94 108.399C158.98 107.312 155.176 106.272 150.44 106.272C138.291 106.272 129.746 112.782 129.678 122.101ZM182.697 107.146C180.34 107.146 178.353 108.532 177.467 110.659L159.03 155.038L171.927 155.038L174.494 147.888H190.255L191.744 155.038H203.112L193.192 107.146H182.697ZM188.22 138.067L184.498 120.084L178.026 138.067L188.22 138.067ZM114.037 107.146L103.87 155.038H116.16L126.322 107.146H114.037ZM83.0632 139.743L95.8557 107.146H108.762L88.8497 155.038H75.8608L66.0598 116.82C65.466 114.467 64.9499 113.601 63.1414 112.611C60.1864 110.991 55.3087 109.476 51.0156 108.537L51.3079 107.146H72.2208C74.8835 107.146 77.2812 108.933 77.8886 112.027L83.0632 139.743Z" fill="url(#paint0_linear_2407_12051)"/>
</g>
</g>
<defs>
<linearGradient id="paint0_linear_2407_12051" x1="51.2807" y1="121.5" x2="94.2715" y2="60.9533" gradientUnits="userSpaceOnUse">
<stop stop-color="#222357"/>
<stop offset="1" stop-color="#254AA5"/>
</linearGradient>
</defs>
</svg>
