<svg width="71" height="40" viewBox="0 0 71 40" fill="none" xmlns="http://www.w3.org/2000/svg">
<g id="Group 1171275889">
<g id="Layer 8">
<path id="Vector" d="M53.0423 18.2622L49.5136 19.5795V19.6625C49.5136 27.2796 43.3395 33.4563 35.7197 33.4563C31.4279 33.4563 27.5939 31.4938 25.0638 28.4148L21.4922 29.6036C20.3275 29.9918 19.9233 31.4322 20.7158 32.3693C24.4828 36.8137 30.1829 39.5634 36.5203 39.3117C46.4774 38.9155 54.6461 30.9905 55.3342 21.0494C55.3609 20.6745 55.377 20.2997 55.3797 19.9276C55.3958 18.7013 54.1883 17.8365 53.0397 18.2649L53.0423 18.2622Z" fill="#FFD23E"/>
</g>
<g id="Layer 4">
<path id="Vector_2" d="M70.994 7.03064C70.8253 6.55139 67.077 6.98245 61.1145 8.29168C58.9699 8.7629 56.5362 9.34657 53.8802 10.0454C53.0717 9.68927 52.3488 9.13506 51.8561 8.42823C48.1614 3.13239 41.9284 -0.262519 34.9191 0.0159279C24.9619 0.412179 16.7933 8.3372 16.1052 18.2783C16.0302 19.3492 16.0436 20.4041 16.1373 21.4349C16.2016 22.139 16.0061 22.8619 15.6607 23.5313C13.4412 24.5246 11.4064 25.4777 9.58846 26.3666C3.47602 29.3519 -0.170564 31.6062 0.00614219 32.1096C0.172139 32.5835 3.77588 31.7963 9.55633 30.123C16.1855 28.2006 25.6795 25.1109 36.1507 21.4108C46.646 17.7026 55.9953 14.1337 62.3595 11.4644C67.8829 9.14577 71.16 7.50454 70.994 7.03064ZM22.3033 23.0012C22.0918 22.115 21.9713 21.1939 21.9392 20.2488C21.9392 20.214 21.9392 20.1765 21.9365 20.1417C21.9338 20.0266 21.9258 19.9142 21.9258 19.7964C21.9258 19.7723 21.9258 19.7455 21.9258 19.7214C21.9258 19.2903 21.9392 18.8539 21.9793 18.4121C22.6005 11.4938 28.3836 6.06411 35.326 5.87134C39.4438 5.75621 43.1627 7.45099 45.7598 10.2114C45.8561 10.3131 45.9525 10.4148 46.0462 10.5193C46.0676 10.546 46.0917 10.5701 46.1158 10.5942C46.9967 11.5849 47.741 12.704 48.3113 13.9195L22.3033 22.9985V23.0012Z" fill="#FFD23E"/>
</g>
</g>
</svg>
